<svg width="494" height="494" viewBox="0 0 494 494" fill="none" xmlns="http://www.w3.org/2000/svg">
<circle cx="246.698" cy="246.698" r="159" stroke="#AC7CFF" stroke-width="3"/>
<path d="M375.803 353.418C378.782 355.88 383.205 355.47 385.546 352.395C390.751 345.557 395.443 338.345 399.586 330.816C401.449 327.43 400.032 323.22 396.574 321.495V321.495C393.116 319.769 388.928 321.182 387.053 324.561C383.4 331.145 379.289 337.464 374.749 343.471C372.419 346.554 372.825 350.956 375.803 353.418V353.418Z" fill="#D2B8FF"/>
<path d="M80.7066 269.143C76.8769 269.661 74.1777 273.189 74.8487 276.995C76.3406 285.457 78.4556 293.798 81.1764 301.95C82.4001 305.615 86.454 307.431 90.0678 306.061V306.061C93.6815 304.691 95.4854 300.656 94.2746 296.986C91.9155 289.835 90.0626 282.528 88.7294 275.118C88.0452 271.314 84.5363 268.626 80.7066 269.143V269.143Z" fill="#D2B8FF"/>
<path d="M216.219 81.9923C215.516 78.1922 211.861 75.6676 208.093 76.5226C199.712 78.4237 191.484 80.9413 183.475 84.0547C179.873 85.4549 178.256 89.5922 179.8 93.1352V93.1352C181.343 96.6782 185.462 98.2839 189.069 96.8963C196.096 94.1929 203.305 91.9872 210.642 90.2958C214.407 89.4276 216.922 85.7924 216.219 81.9923V81.9923Z" fill="#D2B8FF"/>
</svg>
