<svg width="494" height="495" viewBox="0 0 494 495" fill="none" xmlns="http://www.w3.org/2000/svg">
<path d="M80.0332 268.334C76.4101 268.785 73.8259 272.091 74.4139 275.695C79.9709 309.751 95.5044 341.401 119.045 366.632C121.536 369.301 125.732 369.279 128.305 366.689V366.689C130.878 364.099 130.854 359.923 128.371 357.245C106.919 334.109 92.7221 305.183 87.5445 274.059C86.9453 270.458 83.6563 267.883 80.0332 268.334V268.334Z" fill="#954FFF"/>
<path d="M252.447 79.8012C252.573 76.1523 249.716 73.0787 246.065 73.0905C204.355 73.2253 164.061 88.3034 132.509 115.583C129.747 117.971 129.609 122.166 132.1 124.835V124.835C134.591 127.505 138.766 127.638 141.536 125.259C170.514 100.361 207.403 86.5567 245.607 86.3146C249.258 86.2915 252.321 83.4502 252.447 79.8012V79.8012Z" fill="#954FFF"/>
<path d="M310.256 402.957C311.64 406.336 315.507 407.965 318.831 406.454C357.78 388.755 388.949 357.317 406.282 318.037C423.615 278.757 425.829 234.542 412.651 193.842C411.526 190.368 407.716 188.609 404.288 189.864V189.864C400.859 191.12 399.112 194.914 400.225 198.391C412.234 235.876 410.138 276.549 394.186 312.7C378.233 348.85 349.601 377.814 313.817 394.209C310.497 395.73 308.873 399.578 310.256 402.957V402.957Z" fill="#954FFF"/>
</svg>
