<svg width="31" height="30" viewBox="0 0 31 30" fill="none" xmlns="http://www.w3.org/2000/svg">
<path d="M15.7759 29.971C24.0163 29.971 30.6964 23.4523 30.6964 15.411C30.6964 7.36979 24.0163 0.851074 15.7759 0.851074C7.53558 0.851074 0.855469 7.36979 0.855469 15.411C0.855469 23.4523 7.53558 29.971 15.7759 29.971Z" fill="white"/>
<path d="M5.04477 11.2772C5.31289 11.0441 5.71458 10.948 6.20513 10.948C7.44582 10.948 9.25389 11.5629 10.9043 12.1238C12.7229 12.7422 14.4401 13.326 15.8043 13.326C17.1685 13.326 18.8742 12.7722 20.6797 12.1853C23.015 11.4268 25.6616 10.5668 26.6241 11.4238C27.315 12.0387 27.7664 13.3426 27.8949 15.0952C28.0049 16.5962 27.8623 18.3198 27.5229 19.5941C26.2189 24.4848 21.1371 28.1737 15.7019 28.1737C9.6144 28.1737 5.24411 23.8614 4.0727 19.6016C3.41244 17.1981 3.46265 12.6521 5.04477 11.2772Z" fill="black"/>
<path d="M15.8018 23.7517C14.7935 23.7517 13.9088 23.383 13.4032 22.8266C13.348 23.0048 13.3184 23.1914 13.3184 23.3845C13.3184 24.5748 14.4355 25.5399 15.8138 25.5399C17.1921 25.5399 18.3092 24.5748 18.3092 23.3845C18.3092 23.1844 18.2771 22.9912 18.2179 22.8071C17.7158 23.374 16.8215 23.7517 15.8018 23.7517Z" fill="#EAEDF2"/>
<path d="M9.14391 19.4298C9.99357 19.4298 10.6823 18.1687 10.6823 16.613C10.6823 15.0573 9.99357 13.7961 9.14391 13.7961C8.29425 13.7961 7.60547 15.0573 7.60547 16.613C7.60547 18.1687 8.29425 19.4298 9.14391 19.4298Z" fill="#61CAFF"/>
<path d="M22.2201 19.4298C23.0697 19.4298 23.7585 18.1687 23.7585 16.613C23.7585 15.0573 23.0697 13.7961 22.2201 13.7961C21.3704 13.7961 20.6816 15.0573 20.6816 16.613C20.6816 18.1687 21.3704 19.4298 22.2201 19.4298Z" fill="#61CAFF"/>
</svg>
