<svg width="26" height="25" viewBox="0 0 26 25" fill="none" xmlns="http://www.w3.org/2000/svg">
<path d="M12.7289 24.833C19.5566 24.833 25.0915 19.4318 25.0915 12.769C25.0915 6.1063 19.5566 0.705078 12.7289 0.705078C5.90116 0.705078 0.366211 6.1063 0.366211 12.769C0.366211 19.4318 5.90116 24.833 12.7289 24.833Z" fill="#EAEDF2"/>
<path d="M3.83693 9.34407C4.05909 9.15088 4.39191 9.07129 4.79837 9.07129C5.82637 9.07129 7.32448 9.58078 8.69197 10.0455C10.1988 10.5579 11.6216 11.0417 12.752 11.0417C13.8823 11.0417 15.2956 10.5828 16.7916 10.0965C18.7265 9.46802 20.9194 8.7554 21.7169 9.46553C22.2894 9.97502 22.6634 11.0553 22.7699 12.5075C22.861 13.7512 22.7429 15.1793 22.4616 16.2352C21.3812 20.2875 17.1706 23.344 12.6671 23.344C7.62319 23.344 4.00209 19.771 3.0315 16.2414C2.48443 14.2499 2.52603 10.4833 3.83693 9.34407Z" fill="black"/>
<path d="M12.7501 19.6801C11.9147 19.6801 11.1816 19.3746 10.7627 18.9136C10.7169 19.0612 10.6924 19.2158 10.6924 19.3759C10.6924 20.3621 11.618 21.1618 12.76 21.1618C13.902 21.1618 14.8277 20.3621 14.8277 19.3759C14.8277 19.21 14.8011 19.05 14.752 18.8975C14.3359 19.3672 13.595 19.6801 12.7501 19.6801Z" fill="#EAEDF2"/>
<path d="M7.23369 16.099C7.93769 16.099 8.5084 15.0541 8.5084 13.7651C8.5084 12.4761 7.93769 11.4312 7.23369 11.4312C6.52969 11.4312 5.95898 12.4761 5.95898 13.7651C5.95898 15.0541 6.52969 16.099 7.23369 16.099Z" fill="#61CAFF"/>
<path d="M18.0677 16.099C18.7717 16.099 19.3424 15.0541 19.3424 13.7651C19.3424 12.4761 18.7717 11.4312 18.0677 11.4312C17.3637 11.4312 16.793 12.4761 16.793 13.7651C16.793 15.0541 17.3637 16.099 18.0677 16.099Z" fill="#61CAFF"/>
</svg>
