<svg width="483" height="483" viewBox="0 0 483 483" fill="none" xmlns="http://www.w3.org/2000/svg">
<path d="M409.172 244.841C413.036 244.914 416.241 241.839 416.159 237.976C415.694 216.169 411.143 194.621 402.722 174.456C394.301 154.29 382.176 135.906 366.995 120.244C364.305 117.47 359.865 117.588 357.2 120.387V120.387C354.535 123.186 354.656 127.604 357.336 130.389C371.118 144.706 382.135 161.474 389.808 179.849C397.482 198.224 401.661 217.847 402.154 237.713C402.25 241.576 405.308 244.769 409.172 244.841V244.841Z" fill="#B584FF"/>
<path d="M125.769 362.601C123.095 365.391 123.178 369.832 126.073 372.393C142.409 386.845 161.326 398.121 181.854 405.616C202.382 413.11 224.114 416.675 245.92 416.147C249.783 416.054 252.709 412.711 252.46 408.855V408.855C252.212 404.998 248.884 402.089 245.02 402.169C225.152 402.58 205.359 399.299 186.654 392.469C167.948 385.64 150.697 375.398 135.767 362.282C132.864 359.731 128.444 359.812 125.769 362.601V362.601Z" fill="#B584FF"/>
</svg>
