<svg width="450" height="450" viewBox="0 0 450 450" fill="none" xmlns="http://www.w3.org/2000/svg">
<g clip-path="url(#clip0_752_10060)">
<circle cx="224.91" cy="224.911" r="217" stroke="#AC7CFF" stroke-width="3"/>
<path d="M11.7449 285.453C10.1132 285.917 9.16453 287.618 9.65022 289.243C26.1472 344.445 63.2414 391.244 113.314 419.901C163.387 448.558 222.527 456.835 278.48 443.097C280.127 442.692 281.113 441.013 280.686 439.371V439.371C280.259 437.729 278.581 436.747 276.934 437.151C222.535 450.486 165.044 442.43 116.365 414.57C67.6859 386.711 31.6176 341.222 15.5597 287.564C15.0734 285.939 13.3766 284.99 11.7449 285.453V285.453Z" fill="#954FFF"/>
<path d="M362.906 398.294C363.962 399.622 365.896 399.843 367.208 398.768C395.622 375.512 417.916 345.635 432.119 311.742C446.322 277.849 451.988 241.004 448.642 204.439C448.488 202.749 446.974 201.526 445.287 201.703V201.703C443.6 201.881 442.379 203.393 442.533 205.082C445.771 240.62 440.258 276.427 426.454 309.368C412.65 342.309 390.989 371.349 363.383 393.962C362.071 395.037 361.849 396.967 362.906 398.294V398.294Z" fill="#954FFF"/>
<path d="M362.093 50.8999C363.148 49.5619 362.918 47.6195 361.566 46.5831C320.067 14.7807 268.77 -1.55312 216.524 0.399022C214.821 0.46264 213.511 1.91485 213.598 3.61646V3.61646C213.685 5.31807 215.136 6.62465 216.839 6.5617C267.593 4.685 317.421 20.5511 357.746 51.429C359.099 52.4649 361.038 52.238 362.093 50.8999V50.8999Z" fill="#B184FF"/>
</g>
<defs>
<clipPath id="clip0_752_10060">
<rect width="450" height="450" fill="white"/>
</clipPath>
</defs>
</svg>
