<svg width="169" height="145" viewBox="0 0 169 145" fill="none" xmlns="http://www.w3.org/2000/svg">
<path d="M85.8316 144.031C125.621 144.031 157.876 112.704 157.876 74.0603C157.876 35.4164 125.621 4.08936 85.8316 4.08936C46.0425 4.08936 13.7871 35.4164 13.7871 74.0603C13.7871 112.704 46.0425 144.031 85.8316 144.031Z" fill="white"/>
<path d="M34.0141 54.1956C35.3087 53.0752 37.2483 52.6135 39.6169 52.6135C45.6077 52.6135 54.3381 55.5686 62.3072 58.2639C71.0885 61.2358 79.3801 64.0417 85.9673 64.0417C92.5544 64.0417 100.79 61.38 109.508 58.5597C120.785 54.9146 133.564 50.7814 138.211 54.9001C141.547 57.8552 143.727 64.1211 144.348 72.5437C144.879 79.757 144.19 88.0402 142.551 94.1643C136.255 117.667 111.717 135.395 85.4727 135.395C56.0788 135.395 34.9766 114.672 29.3204 94.2003C26.1322 82.6495 26.3747 60.803 34.0141 54.1956Z" fill="black"/>
<path d="M85.9551 114.145C81.0868 114.145 76.815 112.373 74.3736 109.699C74.1069 110.555 73.9639 111.452 73.9639 112.38C73.9639 118.1 79.3582 122.738 86.0133 122.738C92.6684 122.738 98.0627 118.1 98.0627 112.38C98.0627 111.418 97.9076 110.49 97.6215 109.605C95.197 112.329 90.8791 114.145 85.9551 114.145Z" fill="#F0F3F9"/>
<path d="M53.8074 93.3745C57.91 93.3745 61.2358 87.3139 61.2358 79.8377C61.2358 72.3614 57.91 66.3008 53.8074 66.3008C49.7047 66.3008 46.3789 72.3614 46.3789 79.8377C46.3789 87.3139 49.7047 93.3745 53.8074 93.3745Z" fill="#61CAFF"/>
<path d="M116.947 93.3745C121.05 93.3745 124.375 87.3139 124.375 79.8377C124.375 72.3614 121.05 66.3008 116.947 66.3008C112.844 66.3008 109.519 72.3614 109.519 79.8377C109.519 87.3139 112.844 93.3745 116.947 93.3745Z" fill="#61CAFF"/>
</svg>
