<svg width="372" height="373" viewBox="0 0 372 373" fill="none" xmlns="http://www.w3.org/2000/svg">
<path d="M316.434 78.5081C319.628 75.8322 320.053 71.0596 317.239 67.9866C311.43 61.6428 305.177 55.7172 298.528 50.2542C295.323 47.6203 290.602 48.284 288.093 51.5888V51.5888C285.576 54.9057 286.242 59.6235 289.449 62.2798C295.209 67.0506 300.642 72.2014 305.711 77.6976C308.525 80.7492 313.252 81.174 316.434 78.5081V78.5081Z" fill="#B184FF"/>
<path d="M50.5494 84.6843C47.2487 82.1656 42.5184 82.7844 40.1292 86.1799C35.1839 93.2083 30.7435 100.577 26.8413 108.23C24.9482 111.943 26.6302 116.431 30.4221 118.16V118.16C34.2031 119.885 38.6511 118.214 40.5519 114.518C43.9654 107.882 47.8211 101.48 52.0929 95.358C54.4774 91.9405 53.8622 87.2123 50.5494 84.6843V84.6843Z" fill="#B184FF"/>
<path d="M77.4961 316.727C74.825 319.923 75.2474 324.693 78.5573 327.221C85.3996 332.447 92.6046 337.183 100.118 341.393C103.737 343.421 108.266 341.936 110.152 338.24V338.24C112.043 334.534 110.557 330.011 106.935 327.963C100.417 324.277 94.154 320.159 88.1891 315.636C84.8827 313.129 80.1572 313.544 77.4961 316.727V316.727Z" fill="#B184FF"/>
</svg>
