<svg width="18" height="18" viewBox="0 0 18 18" fill="none" xmlns="http://www.w3.org/2000/svg">
<path d="M5.61133 7.01013H2.23633V3.63513" stroke="#798497" stroke-width="1.5" stroke-linecap="round" stroke-linejoin="round"/>
<path d="M13.3738 4.62652C12.7998 4.05165 12.1181 3.59559 11.3676 3.28443C10.6172 2.97327 9.81278 2.81311 9.00039 2.81311C8.188 2.81311 7.38358 2.97327 6.63315 3.28443C5.88271 3.59559 5.20098 4.05165 4.62695 4.62652L2.23633 7.01011" stroke="#798497" stroke-width="1.5" stroke-linecap="round" stroke-linejoin="round"/>
<path d="M12.3887 10.9899H15.7637V14.3649" stroke="#798497" stroke-width="1.5" stroke-linecap="round" stroke-linejoin="round"/>
<path d="M4.62695 13.3735C5.20098 13.9483 5.88271 14.4044 6.63315 14.7155C7.38358 15.0267 8.188 15.1869 9.00039 15.1869C9.81278 15.1869 10.6172 15.0267 11.3676 14.7155C12.1181 14.4044 12.7998 13.9483 13.3738 13.3735L15.7645 10.9899" stroke="#798497" stroke-width="1.5" stroke-linecap="round" stroke-linejoin="round"/>
</svg>
