<svg width="30" height="24" viewBox="0 0 30 24" fill="none" xmlns="http://www.w3.org/2000/svg">
<path d="M2.06234 10.3319C10.1154 6.94501 15.4853 4.71214 18.1722 3.63333C25.8438 0.553096 27.4379 0.018028 28.4769 0.00017129C28.7054 -0.00352627 29.2163 0.0511434 29.5473 0.310393C29.8268 0.529298 29.9037 0.825008 29.9405 1.03255C29.9773 1.2401 30.0231 1.7129 29.9867 2.08232C29.5709 6.29893 27.7721 16.5315 26.857 21.2542C26.4697 23.2525 25.7073 23.9225 24.9691 23.9881C23.3649 24.1306 22.1467 22.9647 20.593 21.9815C18.1617 20.443 16.7882 19.4853 14.4282 17.984C11.7008 16.2491 13.4688 15.2955 15.0232 13.7371C15.4299 13.3292 22.4981 7.12313 22.6349 6.56014C22.652 6.48973 22.6679 6.22727 22.5063 6.08868C22.3448 5.9501 22.1064 5.99749 21.9344 6.03518C21.6905 6.08861 17.8065 8.56679 10.2823 13.4697C9.17983 14.2005 8.18124 14.5566 7.28655 14.5379C6.30022 14.5174 4.40291 13.9996 2.99246 13.557C1.26249 13.0142 -0.112459 12.7271 0.00726778 11.8052C0.0696291 11.325 0.754654 10.8339 2.06234 10.3319Z" fill="white"/>
</svg>
