<svg width="24" height="24" viewBox="0 0 24 24" fill="none" xmlns="http://www.w3.org/2000/svg">
<path d="M12.0001 2.16216C15.2042 2.16216 15.5837 2.1744 16.8491 2.23213C18.0191 2.28548 18.6545 2.48097 19.0773 2.64531C19.6374 2.863 20.0372 3.12303 20.4571 3.54293C20.877 3.96287 21.1371 4.36261 21.3548 4.92274C21.5191 5.34559 21.7146 5.98098 21.7679 7.15097C21.8257 8.41632 21.8379 8.79587 21.8379 12C21.8379 15.2041 21.8257 15.5837 21.7679 16.849C21.7146 18.019 21.5191 18.6544 21.3548 19.0773C21.1371 19.6374 20.877 20.0371 20.4571 20.457C20.0372 20.877 19.6374 21.137 19.0773 21.3547C18.6545 21.519 18.0191 21.7145 16.8491 21.7679C15.5839 21.8256 15.2044 21.8378 12.0001 21.8378C8.79566 21.8378 8.41621 21.8256 7.15099 21.7679C5.981 21.7145 5.34561 21.519 4.92276 21.3547C4.36263 21.137 3.96288 20.877 3.54299 20.457C3.12309 20.0371 2.86301 19.6374 2.64532 19.0773C2.48098 18.6544 2.28549 18.019 2.23214 16.849C2.17441 15.5837 2.16217 15.2041 2.16217 12C2.16217 8.79587 2.17441 8.41632 2.23214 7.15097C2.28549 5.98098 2.48098 5.34559 2.64532 4.92274C2.86301 4.36261 3.12304 3.96287 3.54299 3.54297C3.96288 3.12303 4.36263 2.863 4.92276 2.64531C5.34561 2.48097 5.981 2.28548 7.15099 2.23213C8.41635 2.1744 8.7959 2.16216 12.0001 2.16216ZM12.0001 0C8.74102 0 8.33237 0.0138139 7.05244 0.0722133C5.77517 0.13047 4.90285 0.333343 4.13956 0.629961C3.35045 0.936629 2.68124 1.34695 2.01407 2.01406C1.34695 2.68123 0.936632 3.35044 0.63001 4.13954C0.333344 4.90283 0.13047 5.77516 0.0722135 7.05242C0.0138139 8.33234 0 8.741 0 12C0 15.259 0.0138139 15.6677 0.0722135 16.9476C0.13047 18.2248 0.333344 19.0972 0.63001 19.8605C0.936632 20.6496 1.34695 21.3188 2.01407 21.9859C2.68124 22.6531 3.35045 23.0634 4.13956 23.37C4.90285 23.6667 5.77517 23.8695 7.05244 23.9278C8.33237 23.9862 8.74102 24 12.0001 24C15.2591 24 15.6677 23.9862 16.9476 23.9278C18.2249 23.8695 19.0972 23.6667 19.8605 23.37C20.6496 23.0634 21.3188 22.6531 21.986 21.9859C22.6531 21.3188 23.0634 20.6496 23.3701 19.8605C23.6667 19.0972 23.8696 18.2248 23.9279 16.9476C23.9863 15.6677 24.0001 15.259 24.0001 12C24.0001 8.741 23.9863 8.33234 23.9279 7.05242C23.8696 5.77516 23.6667 4.90283 23.3701 4.13954C23.0634 3.35044 22.6531 2.68123 21.986 2.01406C21.3188 1.34695 20.6496 0.936629 19.8605 0.629961C19.0972 0.333343 18.2249 0.13047 16.9476 0.0722133C15.6677 0.0138139 15.2591 0 12.0001 0Z" fill="white"/>
<path d="M12.005 5.84351C8.60165 5.84351 5.84277 8.60238 5.84277 12.0056C5.84277 15.409 8.60165 18.1678 12.005 18.1678C15.4082 18.1678 18.1671 15.409 18.1671 12.0056C18.1671 8.60238 15.4082 5.84351 12.005 5.84351ZM12.005 16.0057C9.79579 16.0057 8.00494 14.2148 8.00494 12.0056C8.00494 9.79652 9.79579 8.00566 12.005 8.00566C14.2141 8.00566 16.005 9.79652 16.005 12.0056C16.005 14.2148 14.2141 16.0057 12.005 16.0057Z" fill="white"/>
<path d="M19.8507 5.59628C19.8507 6.39153 19.206 7.03626 18.4107 7.03626C17.6154 7.03626 16.9707 6.39153 16.9707 5.59628C16.9707 4.80098 17.6154 4.15625 18.4107 4.15625C19.206 4.15625 19.8507 4.80098 19.8507 5.59628Z" fill="white"/>
</svg>
