<svg width="10" height="12" viewBox="0 0 10 12" fill="none" xmlns="http://www.w3.org/2000/svg">
<path d="M7.1875 9.9375C7.54994 9.9375 7.84375 9.64369 7.84375 9.28125C7.84375 8.91881 7.54994 8.625 7.1875 8.625C6.82506 8.625 6.53125 8.91881 6.53125 9.28125C6.53125 9.64369 6.82506 9.9375 7.1875 9.9375Z" fill="#000D1D"/>
<path d="M5 9.9375C5.36244 9.9375 5.65625 9.64369 5.65625 9.28125C5.65625 8.91881 5.36244 8.625 5 8.625C4.63756 8.625 4.34375 8.91881 4.34375 9.28125C4.34375 9.64369 4.63756 9.9375 5 9.9375Z" fill="#000D1D"/>
<path d="M2.8125 9.9375C3.17494 9.9375 3.46875 9.64369 3.46875 9.28125C3.46875 8.91881 3.17494 8.625 2.8125 8.625C2.45006 8.625 2.15625 8.91881 2.15625 9.28125C2.15625 9.64369 2.45006 9.9375 2.8125 9.9375Z" fill="#000D1D"/>
<path d="M7.1875 7.75C7.54994 7.75 7.84375 7.45619 7.84375 7.09375C7.84375 6.73131 7.54994 6.4375 7.1875 6.4375C6.82506 6.4375 6.53125 6.73131 6.53125 7.09375C6.53125 7.45619 6.82506 7.75 7.1875 7.75Z" fill="#000D1D"/>
<path d="M5 7.75C5.36244 7.75 5.65625 7.45619 5.65625 7.09375C5.65625 6.73131 5.36244 6.4375 5 6.4375C4.63756 6.4375 4.34375 6.73131 4.34375 7.09375C4.34375 7.45619 4.63756 7.75 5 7.75Z" fill="#000D1D"/>
<path d="M2.8125 7.75C3.17494 7.75 3.46875 7.45619 3.46875 7.09375C3.46875 6.73131 3.17494 6.4375 2.8125 6.4375C2.45006 6.4375 2.15625 6.73131 2.15625 7.09375C2.15625 7.45619 2.45006 7.75 2.8125 7.75Z" fill="#000D1D"/>
<path d="M9.375 10.8125V1.1875C9.375 0.945875 9.17912 0.75 8.9375 0.75L1.0625 0.75C0.820875 0.75 0.625 0.945875 0.625 1.1875V10.8125C0.625 11.0541 0.820875 11.25 1.0625 11.25H8.9375C9.17912 11.25 9.375 11.0541 9.375 10.8125Z" stroke="#000D1D" stroke-width="0.7" stroke-linecap="round" stroke-linejoin="round"/>
<path d="M7.625 2.5H2.375V5.125H7.625V2.5Z" stroke="#000D1D" stroke-width="0.7" stroke-linecap="round" stroke-linejoin="round"/>
</svg>
