<svg width="30" height="24" viewBox="0 0 30 24" fill="none" xmlns="http://www.w3.org/2000/svg">
<path fill-rule="evenodd" clip-rule="evenodd" d="M30 2.84079C28.8971 3.32311 27.7101 3.64793 26.4652 3.7946C27.7361 3.04454 28.7121 1.85743 29.1711 0.442947C27.9831 1.13789 26.6642 1.64088 25.2633 1.91354C24.1404 0.736281 22.5395 0 20.7706 0C17.3718 0 14.616 2.71282 14.616 6.05857C14.616 6.53301 14.671 6.99565 14.776 7.43958C9.66036 7.18759 5.12566 4.775 2.08986 1.10934C1.5599 2.0041 1.25692 3.04455 1.25692 4.15488C1.25692 6.25643 2.34184 8.11091 3.99473 9.19761C2.9848 9.16611 2.03686 8.89345 1.20592 8.43967V8.51546C1.20592 11.4517 3.32878 13.8998 6.14259 14.4579C5.62662 14.5957 5.08266 14.6705 4.5217 14.6705C4.12472 14.6705 3.73875 14.6321 3.36277 14.5612C4.14572 16.9679 6.41957 18.72 9.11239 18.7693C7.00653 20.3934 4.35271 21.363 1.4689 21.363C0.970933 21.363 0.480968 21.3344 0 21.2773C2.72382 22.996 5.9586 24 9.43437 24C20.7546 24 26.9452 14.7679 26.9452 6.76236C26.9452 6.49954 26.9402 6.23772 26.9272 5.97884C28.1311 5.12247 29.1751 4.05545 30 2.84079Z" fill="white"/>
</svg>
