<svg width="30" height="30" viewBox="0 0 30 30" fill="none" xmlns="http://www.w3.org/2000/svg">
<path d="M15.2676 29.1146C23.2725 29.1146 29.7617 22.7821 29.7617 14.9706C29.7617 7.15912 23.2725 0.82666 15.2676 0.82666C7.26269 0.82666 0.773438 7.15912 0.773438 14.9706C0.773438 22.7821 7.26269 29.1146 15.2676 29.1146Z" fill="white"/>
<path d="M4.84346 10.9551C5.10393 10.7286 5.49413 10.6353 5.97067 10.6353C7.17591 10.6353 8.93232 11.2326 10.5356 11.7774C12.3022 12.3782 13.9704 12.9454 15.2956 12.9454C16.6208 12.9454 18.2777 12.4073 20.0317 11.8372C22.3002 11.1004 24.8712 10.2649 25.8062 11.0975C26.4774 11.6948 26.9159 12.9614 27.0407 14.664C27.1476 16.122 27.009 17.7964 26.6793 19.0343C25.4126 23.7853 20.476 27.3688 15.1961 27.3688C9.28253 27.3688 5.0371 23.1797 3.89917 19.0416C3.25777 16.7067 3.30655 12.2907 4.84346 10.9551Z" fill="black"/>
<path d="M15.2933 23.0734C14.3139 23.0734 13.4545 22.7152 12.9633 22.1747C12.9096 22.3477 12.8809 22.529 12.8809 22.7166C12.8809 23.8729 13.9661 24.8105 15.305 24.8105C16.6439 24.8105 17.7292 23.8729 17.7292 22.7166C17.7292 22.5222 17.6979 22.3346 17.6404 22.1558C17.1526 22.7064 16.2839 23.0734 15.2933 23.0734Z" fill="#EAEDF2"/>
<path d="M8.82554 18.8746C9.65092 18.8746 10.32 17.6494 10.32 16.1382C10.32 14.627 9.65092 13.4019 8.82554 13.4019C8.00016 13.4019 7.33105 14.627 7.33105 16.1382C7.33105 17.6494 8.00016 18.8746 8.82554 18.8746Z" fill="#61CAFF"/>
<path d="M21.5287 18.8746C22.354 18.8746 23.0231 17.6494 23.0231 16.1382C23.0231 14.627 22.354 13.4019 21.5287 13.4019C20.7033 13.4019 20.0342 14.627 20.0342 16.1382C20.0342 17.6494 20.7033 18.8746 21.5287 18.8746Z" fill="#61CAFF"/>
</svg>
